<?xml version="1.0" standalone="no"?><!DOCTYPE svg PUBLIC "-//W3C//DTD SVG 1.1//EN" "http://www.w3.org/Graphics/SVG/1.1/DTD/svg11.dtd"><svg t="1544075808778" class="icon" style="" viewBox="0 0 1024 1024" version="1.1" xmlns="http://www.w3.org/2000/svg" p-id="2397" xmlns:xlink="http://www.w3.org/1999/xlink" width="16" height="16"><defs><style type="text/css"></style></defs><path d="M583.68 184.32v-35.84c0-25.6-20.48-46.08-46.08-46.08s-46.08 20.48-46.08 46.08v30.72H148.48c-25.6 5.12-46.08 25.6-46.08 51.2s20.48 51.2 46.08 51.2h40.96l30.72 552.96c5.12 51.2 46.08 87.04 97.28 87.04h440.32c51.2 0 92.16-40.96 97.28-87.04l30.72-552.96h40.96c25.6 0 46.08-25.6 46.08-51.2s-20.48-46.08-46.08-46.08h-343.04zM465.92 742.4c0 25.6-30.72 46.08-71.68 46.08s-76.8-20.48-76.8-46.08V399.36c0-25.6 30.72-46.08 71.68-46.08 40.96 0 71.68 20.48 71.68 46.08v343.04z m291.84 0c0 25.6-30.72 46.08-71.68 46.08-40.96 0-71.68-20.48-71.68-46.08V399.36c0-25.6 30.72-46.08 71.68-46.08 40.96 0 71.68 20.48 71.68 46.08v343.04z" fill="#707070" p-id="2398"></path></svg>