<?xml version="1.0" standalone="no"?><!DOCTYPE svg PUBLIC "-//W3C//DTD SVG 1.1//EN" "http://www.w3.org/Graphics/SVG/1.1/DTD/svg11.dtd"><svg t="1544148644929" class="icon" style="" viewBox="0 0 1024 1024" version="1.1" xmlns="http://www.w3.org/2000/svg" p-id="3800" xmlns:xlink="http://www.w3.org/1999/xlink" width="16" height="16"><defs><style type="text/css"></style></defs><path d="M512 512m-512 0a512 512 0 1 0 1024 0 512 512 0 1 0-1024 0Z" fill="#787B7F" p-id="3801"></path><path d="M757.76 691.2l-184.32-184.32 174.08-174.08c15.36-15.36 15.36-40.96 0-56.32s-40.96-15.36-56.32 0l-174.08 174.08-184.32-184.32c-15.36-15.36-40.96-15.36-56.32 5.12-10.24 15.36-10.24 35.84 0 51.2L460.8 506.88l-194.56 194.56c-15.36 15.36-15.36 40.96 0 56.32s40.96 15.36 56.32 0l194.56-194.56 184.32 184.32c15.36 15.36 40.96 15.36 56.32 0s15.36-40.96 0-56.32z" fill="#FFFFFF" p-id="3802"></path></svg>