<?xml version="1.0" standalone="no"?><!DOCTYPE svg PUBLIC "-//W3C//DTD SVG 1.1//EN" "http://www.w3.org/Graphics/SVG/1.1/DTD/svg11.dtd"><svg t="1544075473946" class="icon" style="" viewBox="0 0 1024 1024" version="1.1" xmlns="http://www.w3.org/2000/svg" p-id="1660" xmlns:xlink="http://www.w3.org/1999/xlink" width="16" height="16"><defs><style type="text/css"></style></defs><path d="M512 512m-512 0a512 512 0 1 0 1024 0 512 512 0 1 0-1024 0Z" fill="#1A7AFB" p-id="1661"></path><path d="M829.44 281.6c-20.48-20.48-46.08-20.48-66.56 0l-296.96 327.68L307.2 435.2c-20.48-20.48-46.08-20.48-66.56 0s-20.48 51.2 0 71.68l189.44 204.8c5.12 5.12 10.24 10.24 15.36 10.24 15.36 10.24 40.96 10.24 56.32-5.12l332.8-358.4c15.36-25.6 15.36-56.32-5.12-76.8z" fill="#FFFFFF" p-id="1662"></path></svg>